<?xml version="1.0" encoding="UTF-8"?>
<svg width="67px" height="67px" viewBox="0 0 67 67" version="1.1" xmlns="http://www.w3.org/2000/svg" xmlns:xlink="http://www.w3.org/1999/xlink">
    <!-- Generator: Sketch 52.5 (67469) - http://www.bohemiancoding.com/sketch -->
    <title>goosig-3</title>
    <desc>Created with Sketch.</desc>
    <g id="goosig-3" stroke="none" stroke-width="1" fill="none" fill-rule="evenodd">
        <g id="Group-5" transform="translate(2.000000, 2.000000)">
            <g id="whole-circle-16">
                <g id="whole-circle-15">
                    <path d="M29.839207,58.6066916 C13.359468,58.6066916 0,45.4871368 0,29.3033458 C0,13.1195548 13.359468,0 29.839207,0 C46.318946,0 59.6784141,13.1195548 59.6784141,29.3033458 C59.6784141,45.4871368 46.318946,58.6066916 29.839207,58.6066916 Z M29.839207,48.2031368 C40.4681511,48.2031368 49.0846128,39.7414122 49.0846128,29.3033458 C49.0846128,18.8652794 40.4681511,10.4035547 29.839207,10.4035547 C19.210263,10.4035547 10.5938013,18.8652794 10.5938013,29.3033458 C10.5938013,39.7414122 19.210263,48.2031368 29.839207,48.2031368 Z" id="smaller" fill="#111111"></path>
                    <path d="M32.8,47.9919181 C42.0288834,46.7324322 49.1336267,38.9521845 49.1336267,29.5423352 C49.1336267,25.8697563 48.0513824,22.4454097 46.1829998,19.5600841 L54.9349518,13.965 C57.8718233,18.4594234 59.575,23.8055521 59.575,29.5423352 C59.575,44.1903083 48.4710394,56.2913867 34.0784267,58.1706116 L32.8,47.9919181 Z" id="Combined-Shape" stroke="#111111" fill="#E4E4E8" transform="translate(46.187500, 36.067806) rotate(0.500000) translate(-46.187500, -36.067806) "></path>
                    <path d="" id="Combined-Shape" fill="#000000"></path>
                    <g id="Group-8" transform="translate(46.796987, 35.191485) rotate(8.000000) translate(-46.796987, -35.191485) translate(34.296987, 9.691485)" stroke="#111111" stroke-width="1.5">
                        <path d="M8.46696035,35.0643013 L16.1145374,42.8427638 L8.46696035,35.0643013 Z" id="Path-2-Copy"></path>
                        <path d="M0.00132903026,40.1792 L2.86917044,50.3716681 L0.00132903026,40.1792 Z" id="Path-2-Copy"></path>
                        <path d="M13.3814885,26.9973168 L23.7612279,29.9510369 L13.3814885,26.9973168 Z" id="Path-2-Copy" transform="translate(18.571358, 28.474177) rotate(-1.000000) translate(-18.571358, -28.474177) "></path>
                        <path d="M13.6671412,14.9012111 L24.1610527,17.944416 L13.6671412,14.9012111 Z" id="Path-2-Copy" transform="translate(18.914097, 16.422814) rotate(-29.000000) translate(-18.914097, -16.422814) "></path>
                        <path d="M8.26605919,4.80545945 L18.9540082,7.47034486 L8.26605919,4.80545945 Z" id="Path-2-Copy" transform="translate(13.610034, 6.137902) rotate(-55.000000) translate(-13.610034, -6.137902) "></path>
                    </g>
                </g>
            </g>
            <path d="M32.7186293,39.4704813 C32.5884354,39.6958794 32.3520962,39.8376273 32.1027651,39.85 L29.7208523,39.8430068 C29.6979094,39.8427378 29.6763487,39.8360135 29.6536822,39.8338617 L33.7369613,32.7604504 C33.7927982,32.6636207 33.7916926,32.5452733 33.7341972,32.4492505 C33.6769781,32.3534966 33.5713856,32.2945919 33.4572241,32.2943229 L26.6241168,32.2781846 L25.2,29.8953665 L35.1928665,29.9066633 L35.1931429,29.9066633 C35.2556139,29.9066633 35.3147678,29.8878353 35.3653527,29.8563656 C35.416214,29.8289306 35.4601648,29.7888538 35.4905711,29.7364044 L37.2256606,26.7303794 L40.075,26.725 C40.0741708,26.7263448 40.0738943,26.7282276 40.0730651,26.7295725 L32.7186293,39.4704813 Z M27.9402566,36.9278195 C27.7920519,36.6834012 27.7863844,36.376809 27.9255212,36.1278276 L30.2429567,31.975 L33.075,31.9821301 L29.172085,38.975 L27.9402566,36.9278195 Z M24.7614865,34.5675371 C24.7602196,34.5704356 24.7584459,34.5730442 24.7571791,34.5762326 C24.7528716,34.584928 24.7462838,34.5915944 24.7414696,34.6 L23.45,32.0606498 L24.78125,29.35 L26.075,31.8936979 L24.7614865,34.5675371 Z M24.2085349,35.4670721 L24.207975,35.4670721 L21.8414379,35.475 C21.7263726,35.4667785 21.6174666,35.4324245 21.5163995,35.3728188 C21.4024541,35.3055789 21.309506,35.2130872 21.2428745,35.1020973 L19.9875152,32.9568792 C19.9707173,32.9245805 19.9623184,32.8899329 19.95,32.8558725 L22.8820647,32.85 L24.325,35.4506292 C24.286365,35.4570889 24.2482898,35.4670721 24.2085349,35.4670721 Z M27.3225419,19.2297955 C27.4527351,19.0043928 27.6898532,18.862104 27.9394365,18.85 L30.326129,18.8569934 C30.3493976,18.8572624 30.3710041,18.8637178 30.3934417,18.8661386 L26.302048,25.9396949 C26.2460925,26.0365265 26.2472006,26.1548764 26.304541,26.2506322 C26.3621585,26.346657 26.4679752,26.405563 26.5821021,26.4058319 L33.4017379,26.4219706 L34.825,28.8155966 L24.8256006,28.8042996 C24.7189529,28.8042996 24.6220004,28.857019 24.5624439,28.9409398 C24.5605049,28.9433606 24.5588428,28.9455125 24.5571807,28.9473953 C24.5533027,28.9533128 24.5480395,28.9578854 24.5444384,28.9640718 L22.8056654,31.9698894 L19.95,31.975 C19.950831,31.9736551 19.951108,31.9723102 19.951939,31.9706964 L27.3225419,19.2297955 Z M32.0844911,20.8970972 C32.2329801,21.1417906 32.2386476,21.4483703 32.09951,21.6973416 L29.7817771,25.85 L26.95,25.8431554 L30.8526552,18.85 L32.0844911,20.8970972 Z M35.2695619,23.2572439 C35.2708229,23.254365 35.2723362,23.2511982 35.2738494,23.2486072 C35.2783892,23.2396825 35.2849467,23.2333489 35.2897387,23.225 L36.575,25.7469346 L35.2327392,28.475 L33.95,25.9383829 L35.2695619,23.2572439 Z M36.6911851,23.2332205 L36.6917451,23.2332205 L39.0585621,23.225 C39.1730675,23.2335141 39.2825334,23.2681579 39.3833205,23.3274634 C39.497266,23.3946958 39.5899341,23.487177 39.6571255,23.5981546 L40.9122049,25.7428391 C40.9292827,25.7754278 40.9376816,25.8103652 40.95,25.8441282 L38.0176553,25.85 L36.575,23.2493681 C36.613635,23.2432027 36.6511503,23.2332205 36.6911851,23.2332205 Z" id="Fill-249" fill="#111111" fill-rule="nonzero"></path>
        </g>
    </g>
</svg>