<?xml version="1.0" encoding="UTF-8"?>
<svg width="67px" height="67px" viewBox="0 0 67 67" version="1.1" xmlns="http://www.w3.org/2000/svg" xmlns:xlink="http://www.w3.org/1999/xlink">
    <!-- Generator: Sketch 52.5 (67469) - http://www.bohemiancoding.com/sketch -->
    <title>goosig-1</title>
    <desc>Created with Sketch.</desc>
    <g id="goosig-1" stroke="none" stroke-width="1" fill="none" fill-rule="evenodd">
        <g id="Page-1-Copy-2" transform="translate(1.000000, 1.000000)">
            <path d="M17.7813107,15.366722 C17.7864508,15.4167088 17.7917105,15.4668204 17.7969702,15.5169319 C18.2642467,15.3906558 18.7316426,15.2643798 19.3655559,15.0931031 C19.2418334,14.8881695 19.0762725,14.614052 18.8865647,14.2999201 C18.4375776,14.7332227 18.1094442,15.0499723 17.7813107,15.366722 Z M44.5053628,21.238869 C44.1083751,20.8645285 43.7544213,21.1407651 43.5294496,21.4098963 C43.4095524,21.5532501 43.4955006,21.9410534 43.5712881,22.1913617 C43.6779166,22.5435135 43.8591371,22.8716068 44.0129833,23.207678 C44.0991706,23.3961572 44.1506918,23.6645405 44.2958117,23.7456912 C44.5021353,23.8612469 44.779943,23.8375623 45.0414935,23.8754576 C44.962598,23.3143832 44.9079689,22.9259566 44.8481996,22.5011306 C43.9846526,21.915873 43.9750896,21.885831 44.5053628,21.238869 Z M42.3531897,22.6129466 C41.8616469,22.0625926 41.4774498,21.6326557 41.0277455,21.1291721 C41.0585865,21.1129669 40.8587179,21.159962 40.8504698,21.231265 C40.7852017,21.7915915 40.5942985,21.8166472 40.2517009,21.4275974 C39.9759253,21.1143381 39.7127013,21.1948656 39.5722434,21.543901 C39.4229397,21.9148758 39.351336,22.3198815 39.2719624,22.6129466 L42.3531897,22.6129466 Z M43.0022843,30.726275 C42.9894937,30.5483916 43.0239208,30.3476962 42.9566206,30.1963644 C42.5242494,29.2260459 42.080283,28.2607137 41.615756,27.3067251 C41.4662132,26.9994493 41.242676,26.7313153 41.0530877,26.4454802 L40.8324194,26.5874628 C41.4709947,28.0107794 41.7927926,29.6046247 43.0145968,30.7139341 C43.0901452,30.9283415 43.1658131,31.142749 43.2548694,31.3954257 C43.7858599,31.2993163 44.2867267,31.2085671 44.8642178,31.1039811 C44.8642178,31.3114079 44.9193251,31.4985158 44.8553719,31.6135729 C44.4447568,32.3520321 44.1053866,33.1688996 43.5588561,33.7817061 C42.5828233,34.8759321 41.7296763,35.9342574 42.3086018,37.5595159 C42.3695665,37.7306679 42.3614378,37.9287455 42.3837915,38.1144822 C42.4512113,38.6778005 42.2895951,39.1000087 41.7947053,39.4158857 C41.5009989,39.6033676 41.0912205,39.9204912 41.0793862,40.1953566 C41.0510556,40.8603937 40.9955896,41.4159833 40.5058399,41.9345502 C40.1802168,42.279472 40.0704803,42.8360589 39.8195688,43.2697354 C39.3123664,44.1464376 38.4559918,44.2622425 37.5852726,44.3007611 C37.4778074,44.305498 37.2973041,44.1999148 37.2647896,44.1035561 C36.9761038,43.2511617 36.7075005,42.3911634 36.4447547,41.5295445 C36.2756075,40.9745782 36.0789665,40.4216063 35.9838138,39.8513074 C35.9110148,39.4150131 35.8510064,38.8975681 36.0065261,38.5136292 C36.4527638,37.4124224 36.1846387,36.4210372 35.6359564,35.5238915 C35.3170274,35.0025821 35.1585192,34.5700275 35.3233629,33.9735509 C35.455214,33.4963696 35.3448799,33.1305057 34.7379824,33.1777502 C34.6137817,33.1874733 34.4195315,33.0927351 34.3604794,32.9847834 C34.1286941,32.561204 33.8193281,32.5977281 33.4338161,32.6968292 C32.7718113,32.866984 32.0995261,33.0002407 31.4255674,33.108317 C31.2800889,33.1316276 31.0649194,33.0254211 30.9573347,32.9053779 C30.4589782,32.3485417 29.9356382,31.8025506 29.5274138,31.1771539 C29.3182212,30.8567893 29.2898906,30.3817271 29.2577347,29.9698653 C29.2292845,29.6045 29.2953893,29.2280404 29.3433243,28.859808 C29.3981926,28.4374752 29.388749,27.9691445 29.5703282,27.6106352 C29.8239891,27.1096447 30.2314962,26.6940433 30.5671606,26.2370562 C30.6870579,26.0737575 30.7912955,25.8977439 30.8991194,25.7252207 C31.1089096,25.3893987 31.2983783,25.0378702 31.5299246,24.7193754 C31.7228599,24.4538591 32.0376051,24.1396026 31.6121672,23.9279376 C30.7372641,23.4927652 31.2713626,22.8153872 31.3355548,22.288967 C31.4038114,21.7290144 31.9375513,22.0223288 32.2889948,21.9882979 C32.5053597,21.9673557 32.8679203,21.8900693 32.8929039,21.7741397 C32.9437078,21.5389148 32.8410241,21.2463483 32.7410898,21.0046413 C32.6794079,20.855304 32.506316,20.7560782 32.4758337,20.7259115 C33.3472701,20.14028 34.1962334,19.569981 35.0117258,19.0219954 C35.0566723,18.7554819 35.0969568,18.5168913 35.1372413,18.2784253 C35.3308939,18.3539666 35.5245464,18.4295078 35.8572224,18.5593988 C35.7293161,18.2167208 35.6372713,17.9699029 35.5483346,17.7321849 C35.1168002,17.7950113 34.6941117,18.296999 34.4536,17.6366988 C34.2332903,17.0321196 34.6021865,16.8068671 35.085242,16.5534424 C35.4981284,16.3367911 35.800322,15.8885299 36.1477012,15.5387466 C36.2532538,15.4325401 36.3266505,15.2764714 36.4482213,15.2050438 C37.917829,14.3409318 39.3132032,14.9678244 40.7106096,15.4615848 C40.7879511,15.4888844 40.8307459,15.623263 40.9663027,15.8180996 C40.5467222,15.8633495 40.2329333,15.8973805 39.7430641,15.9503591 C39.9966055,16.1546694 40.1940832,16.3933847 40.2647306,16.3578579 C40.7456344,16.1160262 41.1997616,15.8164791 41.7424669,15.4870145 C41.7919559,15.4947432 42.0114288,15.5857417 42.2111778,15.5514614 C43.2594119,15.3717082 44.3026254,15.1602925 45.3328091,14.9625888 C45.3375907,14.8881695 45.3086623,14.4482602 45.3764407,14.4314317 C45.6469566,14.3642424 45.9474767,14.4286893 46.1907377,14.4419028 C39.1239736,8.0741255 27.244824,7.59071144 19.3908981,13.9785583 C19.5723577,14.0776594 19.7562081,14.1780071 19.8996544,14.2562907 C20.1805702,14.1520787 20.45264,14.0513571 20.8073111,13.9198455 C20.4996187,14.3365689 20.2325694,14.5868771 20.1227135,14.8976433 C20.0734636,15.0367589 20.339676,15.2969149 20.4913705,15.5499656 C20.6876529,15.3892846 20.8364785,15.2674962 20.9813593,15.1489488 C20.6204722,14.5643145 20.6807197,14.3067762 21.2650244,14.1822454 C21.9857227,14.0285451 22.7398918,13.8934185 23.3785866,14.4603518 C23.8461022,14.8754546 24.2898295,15.3193529 24.7441958,15.7504116 C24.7300902,15.8255789 24.7159846,15.9006215 24.7019986,15.9756641 C24.3969361,16.0085732 24.0919931,16.0416069 23.8245852,16.070527 C23.7908753,16.249283 23.7878869,16.644067 23.6997869,16.6658817 C23.3625685,16.7495255 22.9790886,16.7895399 22.6488034,16.7005359 C22.3175619,16.6112826 22.0289957,16.349132 21.7949391,16.2071494 C22.1321575,16.0412329 22.5528139,15.8343048 23.0135157,15.6075564 C22.2947301,14.8207309 21.9916997,14.8298307 21.3809769,15.4587177 C21.1479961,15.6986796 20.8271545,15.8457731 20.5482709,16.0340029 C20.6232216,16.1500572 20.724949,16.3078711 20.7960745,16.4183158 C20.5440871,16.5297579 20.3424254,16.6188866 20.0648568,16.7416722 C20.0126184,16.6601475 19.8936775,16.4746601 19.7293119,16.2182438 C19.1041249,16.5681518 18.4569429,16.8913835 17.8501649,17.2826771 C17.3900608,17.5792326 17.4564047,18.0402086 17.9487843,18.2638406 C18.3544983,18.4480815 18.7620054,18.6279594 19.1845744,18.8169371 C19.1705884,18.9398474 19.1313798,19.0590181 19.1505059,19.1668451 C19.1829009,19.3489668 19.2522333,19.5238585 19.3060257,19.7017419 C19.427955,19.5615045 19.5572958,19.4273751 19.6695426,19.2791597 C19.7607505,19.1588672 19.8183682,18.9215231 19.9132818,18.9079356 C20.7068987,18.7951224 20.7726449,18.1849337 20.8871629,17.5373483 C21.0182967,16.7962713 21.7845393,16.5644121 22.2864819,17.0996828 C22.4503693,17.2745745 22.4882631,17.577986 22.6152131,17.9028383 C22.8869243,17.7622269 23.1531368,17.6247318 23.4509075,17.4707823 C23.6836492,18.0438237 23.5864643,18.7766734 24.2570759,19.0931737 C24.317682,19.1218445 24.2996317,19.4025687 24.2687907,19.555521 C24.2073478,19.8608023 23.9950473,20.1526209 24.3794834,20.4241206 C24.4715282,20.4890661 24.4105635,20.7896105 24.4232346,21.0473981 C23.9939714,20.9386985 23.6634472,20.85493 23.2770984,20.7570754 C23.5045803,20.4197576 23.6693046,20.1756821 23.8168152,19.9569117 C23.1754905,20.0608744 22.5687125,20.159103 22.0095109,20.2497275 C22.0233774,20.5193574 22.0411887,20.8663983 22.0600758,21.235254 L22.7544756,21.235254 C22.3800806,21.5617267 21.7614683,22.0027579 21.5723582,21.8531713 C21.1069944,21.4851882 20.8325337,21.797201 20.579351,21.9729652 C20.0772888,22.321502 19.6170651,22.7485718 19.1888778,23.1947139 C18.9706003,23.4223348 18.8748499,23.7726168 18.6944661,24.0463603 C18.560822,24.2489255 18.4122355,24.4829039 18.21416,24.5897336 C17.3853988,25.0366236 16.907842,25.6368399 17.2132632,26.6667437 C17.220316,26.6905529 17.1656868,26.7340577 17.0442356,26.8956112 C16.9013869,26.6750956 16.7936826,26.4911041 16.6684062,26.3209493 C16.5556813,26.1677477 16.4190486,25.9013589 16.300825,25.9059712 C15.5026656,25.9367611 14.6723504,25.9043506 13.9194963,26.1327195 C13.2217494,26.3443846 12.8343247,27.8767747 13.2126644,28.5925466 C13.3441569,28.841359 13.6574676,29.1141053 13.9037172,29.1315571 C14.1393278,29.1481362 14.4020736,28.8571903 14.6405532,28.6829219 C14.8422148,28.5355791 15.0260652,28.36156 15.2178051,28.1992585 C15.2829537,28.2487468 15.3479827,28.298235 15.4131312,28.3475986 C15.3141532,28.8295168 15.2151753,29.3111856 15.1133284,29.8068159 C15.4963301,29.8813599 15.8348634,29.9474274 16.0929473,29.9977882 C16.1773416,30.6178247 16.0862531,31.2917123 16.3666907,31.6140715 C16.623101,31.9088818 17.2814002,31.8233681 17.7626626,31.9053914 C17.7372009,31.8372048 17.7117392,31.7688936 17.686397,31.7005824 C18.0854169,31.4730861 18.4795357,31.0705735 18.8845325,31.0579833 C19.5319536,31.038163 20.1919263,31.2544403 20.8349245,31.4199829 C21.0508113,31.4755792 21.2382478,31.6711637 21.426282,31.8200024 C21.8127504,32.1261563 22.1583365,32.635748 22.5797101,32.7131591 C23.2695674,32.8399337 23.6161099,33.1920855 23.8168152,33.8148645 C23.9605006,34.2606326 24.2065111,34.535124 24.6651807,34.7092677 C25.4500713,35.007319 26.2018496,35.4075879 26.9506395,35.8001281 C27.563753,36.1218639 27.7336174,36.6032835 27.3441606,37.159621 C26.8492707,37.8664178 26.7021187,38.6127303 26.7074979,39.4631301 C26.7128772,40.302311 26.4777447,41.0349114 25.5245438,41.2505655 C25.3243166,41.2959401 25.0889451,41.5365252 25.0125599,41.7442013 C24.7845998,42.3636145 24.594892,43.0035959 24.4532388,43.6505579 C24.3319071,44.204527 24.051589,44.4512203 23.4474409,44.3523685 C23.7756939,44.9360055 23.9416135,45.3897516 23.1354451,45.6176219 C22.8973242,45.6849358 22.6709181,46.1132521 22.5972823,46.4176609 C22.5047594,46.7998547 22.5749286,47.2248053 22.5749286,47.6311823 C22.6847845,47.9090394 22.8522581,48.2323958 22.7786224,48.4764713 C22.5926203,49.0918955 22.9229055,49.3971768 23.3036359,49.7040787 C23.4330963,49.8084154 23.5889746,49.8771005 23.7327796,49.9621156 C23.5633933,50.1451099 23.4009404,50.2206511 23.2552228,50.1943488 C22.0765721,49.9823098 20.819504,48.6305455 20.9789685,47.0076554 C20.9898466,46.8962134 21.0282185,46.7163355 20.9792076,46.6811826 C20.3678872,46.2411487 20.4305254,45.5131605 20.3501954,44.9045924 C20.1546303,43.4234356 20.0709532,41.925949 19.9491434,40.4344459 C19.9032406,39.8721249 19.5914839,39.5389207 19.1837377,39.1901346 C18.6987695,38.7754057 18.3003473,38.2378912 17.915433,37.7128422 C17.6590227,37.3631835 17.5235854,36.9190359 17.2781726,36.5584075 C16.7519637,35.785668 16.7141895,34.7608751 17.2486466,33.9610854 C17.669303,33.3314504 17.711261,32.7092948 17.277575,32.074175 C17.2429088,32.0234402 17.1777602,31.9953927 17.1063957,31.9414168 C16.9863789,32.0767927 16.8756861,32.2014482 16.7657106,32.3253558 C16.5497043,32.1955894 16.3391968,32.1257823 16.2056722,31.9794368 C15.5745083,31.287848 15.0334766,30.4888062 14.0880457,30.2019739 C13.8108357,30.1178314 13.5360164,30.0172344 13.2713579,29.8969419 C12.6832279,29.6294312 12.0727442,29.3935829 11.5339837,29.0408078 C11.3430805,28.9157784 11.3393748,28.4865895 11.2402773,28.2000064 C11.1769219,28.0165135 11.0955161,27.8398767 10.9643822,27.5183901 C10.8723375,27.810458 10.8173497,27.9359861 10.7935615,28.0676223 C9.94543509,32.7625227 10.3077566,37.3605657 12.2423695,41.6905994 C16.123071,50.3764705 22.7162232,55.0389604 31.9138826,55.5488015 C35.0732882,55.7239424 38.1640785,55.1568845 41.0547613,53.7936519 C49.1915155,49.9563814 53.7501205,43.3735734 54.5895206,34.0968352 C54.7483875,32.3434309 54.4717751,30.5452752 54.3716017,28.7693082 C54.3400436,28.2083584 54.0264938,27.9351135 53.5141513,28.2426386 C53.1610342,28.454553 52.860036,28.7703054 52.5595159,29.0659883 C51.9889581,29.627312 51.4415908,30.1811564 51.5305275,31.1405052 C51.5584996,31.4427948 51.2570232,31.7783674 51.106285,32.0987321 C51.0110127,32.0838981 50.91586,32.0691887 50.8207073,32.0543547 C50.436032,30.8671357 50.0515958,29.6799166 49.6682355,28.4970605 C49.4971758,28.4236384 49.1775295,28.3943444 49.0933743,28.2321676 C48.6665019,27.4089426 48.0710801,27.0347268 47.1676073,27.2237045 C47.0000141,27.2587327 46.7987111,27.2239538 46.6366168,27.1580111 C46.3747077,27.0516799 46.1179387,26.7561217 45.8844798,26.7826733 C45.2655089,26.8532283 44.9178906,26.5601633 44.606612,26.075378 C44.5287924,25.9540882 44.3096781,25.9315255 44.1554733,25.8635883 C44.1072993,25.925916 44.0590057,25.9882438 44.0105925,26.0505715 C44.35582,26.5358554 44.7011671,27.0210147 45.0767574,27.5490554 C45.3581513,27.4123083 45.6149202,27.2874035 45.7832306,27.2056295 C45.9654075,27.3413793 46.1124399,27.4944563 46.2898352,27.5754824 C46.9545895,27.8793925 46.8141316,28.3657983 46.4543204,28.7413853 C45.9575179,29.2600769 45.4077598,29.7600701 44.798352,30.1139671 C44.256603,30.428473 43.6027268,30.5329343 43.0022843,30.726275 Z" id="Fill-3" fill="#111111"></path>
            <path d="M53.6956522,26.1629958 C54.018338,26.3011493 54.3324845,26.4437409 54.6376812,26.5906274" id="Stroke-5" stroke="#999999" stroke-width="1.5" stroke-linecap="round" stroke-linejoin="round"></path>
            <path d="M55.5797101,27.1050248 C56.2404934,27.2417483 56.8691672,27.3844843 57.4637681,27.5326564" id="Stroke-7" stroke="#999999" stroke-width="1.5" stroke-linecap="round" stroke-linejoin="round" stroke-dasharray="13.043,8.151999999999999"></path>
            <path d="M58.4943494,28.2092481 C62.5792112,29.6908287 65,31.5329974 65,33.5293281 C65,38.4236391 50.4492529,42.3913043 32.5000605,42.3913043 C14.5507471,42.3913043 0,38.4236391 0,33.5293281 C0,31.1104575 3.55416854,28.9178665 9.31592899,27.3188406" id="Stroke-9" stroke="#999999" stroke-width="1.5" stroke-linecap="round" stroke-linejoin="round" stroke-dasharray="24.455,4.891,13.043,8.151999999999999"></path>
            <path d="M10.3623188,26.5906274 C10.6678285,26.4436931 10.9819474,26.3010028 11.3043478,26.1629958" id="Stroke-11" stroke="#999999" stroke-width="1.5" stroke-linecap="round" stroke-linejoin="round"></path>
            <path d="M40.7196647,53.6956522 C40.5824209,54.0182535 40.4407126,54.332374 40.2948281,54.6376812" id="Stroke-13" stroke="#999999" stroke-width="1.5" stroke-linecap="round" stroke-linejoin="round"></path>
            <path d="M39.6167841,58.4942907 C38.1352234,62.5791655 36.2930213,65 34.2966565,65 C29.4024442,65 25.4347826,50.4492643 25.4347826,32.5 C25.4347826,14.5507357 29.4024442,0 34.2966565,0 C36.7155458,0 38.9080958,3.5541266 40.5072464,9.31590624" id="Stroke-17" stroke="#999999" stroke-width="1.5" stroke-linecap="round" stroke-linejoin="round" stroke-dasharray="24.151,4.83,12.881,8.050000000000001"></path>
            <path d="M53.4832339,44.2753623 C53.6384076,44.9218844 53.7801819,45.5506884 53.9080705,46.1594203" id="Stroke-23" stroke="#999999" stroke-width="1.5" stroke-linecap="round" stroke-linejoin="round" stroke-dasharray="13.043,8.151999999999999"></path>
            <path d="M54.8507205,47.1826924 C56.6927554,51.1602773 57.0896364,54.2122131 55.6508209,55.6509062 C52.1237483,59.1780996 38.89942,51.6724681 26.1134161,38.8864684 C13.3275341,26.1005906 5.82190011,12.8762667 9.34909462,9.34907331 C11.0922749,7.60589357 15.2039425,8.55750564 20.4607873,11.509368" id="Stroke-25" stroke="#999999" stroke-width="1.5" stroke-linecap="round" stroke-linejoin="round" stroke-dasharray="24.455,4.891,13.043,8.151999999999999"></path>
            <path d="M22.3962774,11.090532 C22.5356938,11.2264169 22.6774033,11.3690079 22.821114,11.5181636" id="Stroke-27" stroke="#555555" stroke-width="1.5" stroke-linecap="round" stroke-linejoin="round"></path>
            <path d="M12.4587951,44.0615465 C12.3103855,44.2062654 12.1687025,44.3488929 12.0339585,44.4891781" id="Stroke-29" stroke="#555555" stroke-width="1.5" stroke-linecap="round" stroke-linejoin="round"></path>
            <path d="M11.5167661,44.2753623 C11.3615924,44.5986234 11.2198181,44.9130254 11.0919295,45.2173913" id="Stroke-31" stroke="#555555" stroke-width="1.5" stroke-linecap="round" stroke-linejoin="round" stroke-dasharray="13.043,8.151999999999999"></path>
            <path d="M10.149277,47.1826924 C8.30724482,51.1602773 7.9103644,54.2122131 9.34917779,55.6509062 C12.8762452,59.1780996 26.100676,51.6724681 38.8865393,38.8864684 C51.6724026,26.1005906 59.1780256,12.8762667 55.6509581,9.34907331 C53.9076585,7.60589357 49.7959969,8.55750564 44.5391598,11.509368" id="Stroke-33" stroke="#999999" stroke-width="1.5" stroke-linecap="round" stroke-linejoin="round" stroke-dasharray="24.455,4.891,13.043,8.151999999999999"></path>
        </g>
    </g>
</svg>