<?xml version="1.0" encoding="UTF-8"?>
<svg width="72px" height="67px" viewBox="0 0 72 67" version="1.1" xmlns="http://www.w3.org/2000/svg" xmlns:xlink="http://www.w3.org/1999/xlink">
    <!-- Generator: Sketch 52.5 (67469) - http://www.bohemiancoding.com/sketch -->
    <title>goosig-2</title>
    <desc>Created with Sketch.</desc>
    <g id="goosig-2" stroke="none" stroke-width="1" fill="none" fill-rule="evenodd">
        <g id="Group-3" transform="translate(2.000000, 7.000000)" fill-rule="nonzero">
            <g id="Group-2" transform="translate(15.000000, 0.000000)" stroke="#111111">
                <path d="M28.5413796,52.2203862 L28.5413796,52.2259849 L23.7143929,52.2259849 L23.7143929,49.4327022 C16.5633015,40.5018274 16.5633015,12.705639 23.7143929,3.77476418 L23.7143929,0.981481481 L28.5413796,0.981481481 L28.5413796,0.987080186 C28.624545,0.983355235 28.7082194,0.981481481 28.792403,0.981481481 C42.7141744,0.981481481 54.0000001,12.4529543 54.0000001,26.6037332 C54.0000001,40.7545121 42.7141744,52.2259849 28.792403,52.2259849 C28.7082194,52.2259849 28.624545,52.2241112 28.5413795,52.2203863 Z" id="Combined-Shape" stroke-width="2" fill="#111111"></path>
                <ellipse id="Oval-Copy" stroke-width="1.5" fill="#F0F5FD" cx="25.9467769" cy="26.3279221" rx="25.9467769" ry="26.3279221"></ellipse>
                <ellipse id="Oval-Copy" stroke-width="1.5" fill="#E4E4E8" cx="25.9467769" cy="26.3279221" rx="21.1135537" ry="21.4237013"></ellipse>
            </g>
            <g id="handshake_logo_H_outline" transform="translate(28.000000, 12.000000)">
                <g id="Group">
                    <path d="M17.2348366,26.9053173 C17.0728335,27.1939475 16.7787515,27.3754607 16.4685035,27.3913043 L13.5046383,27.3823493 C13.47609,27.3820048 13.4492614,27.3733941 13.4210571,27.3706387 L18.5019689,18.3128877 C18.5714479,18.1888938 18.5700722,18.0373458 18.4985294,17.9143852 C18.4273305,17.791769 18.2959395,17.7163395 18.1538859,17.715995 L9.65130387,17.6953294 L7.87924472,14.6440473 L20.313583,14.6585133 L20.3139269,14.6585133 C20.3916609,14.6585133 20.4652674,14.6344033 20.5282113,14.5941053 C20.5914991,14.5589738 20.646188,14.5076541 20.6840232,14.4404907 L22.8430323,10.5911704 L26.3885264,10.5842819 C26.3874946,10.586004 26.3871507,10.588415 26.3861188,10.5901371 L17.2348366,26.9053173 Z M11.237971,24.4884705 C11.0580822,24.1932962 11.0512031,23.8230368 11.2200853,23.5223517 L14.0329541,18.5071447 L17.4704461,18.5157554 L12.7331459,26.9607701 L11.237971,24.4884705 Z M7.17344791,21.2691078 C7.17172811,21.2725521 7.1693204,21.2756519 7.16760066,21.2794406 C7.16175341,21.2897735 7.15281054,21.2976953 7.14627537,21.3076836 L5.3931338,18.2901555 L7.20027643,15.0690707 L8.95651363,18.0917653 L7.17344791,21.2691078 Z M6.33350835,21.7668053 L6.33282043,21.7668053 L3.42536391,21.7761049 C3.28399817,21.7664609 3.15019944,21.7261629 3.02603148,21.6562442 C2.88604156,21.5773703 2.7718483,21.4688757 2.68998688,21.3386821 L1.14769005,18.8222957 C1.12705271,18.7844087 1.11673405,18.7437663 1.1016,18.7038127 L4.70384681,18.6969242 L6.47659387,21.7475174 C6.42912802,21.7550948 6.38235004,21.7668053 6.33350835,21.7668053 Z M10.3051635,1.58198362 C10.4668226,1.29335348 10.7612486,1.1111514 11.0711526,1.09565217 L14.0346738,1.10460728 C14.0635661,1.10495171 14.0903946,1.11321797 14.118255,1.11631781 L9.0380311,10.1740689 C8.96855204,10.2980627 8.96992788,10.4496108 9.04112668,10.5722269 C9.11266944,10.6951874 9.24406047,10.7706171 9.3857702,10.7709615 L17.8536127,10.7916271 L19.6208564,13.8566863 L7.20474785,13.8422204 C7.07232495,13.8422204 6.9519405,13.9097281 6.87799003,14.0171895 C6.87558237,14.0202893 6.87351862,14.0230448 6.87145487,14.0254557 C6.86663949,14.0330331 6.86010433,14.0388884 6.85563291,14.0468102 L4.69662374,17.8957861 L1.15078565,17.9023302 C1.15181752,17.9006081 1.15216147,17.898886 1.15319334,17.8968194 L10.3051635,1.58198362 Z M16.3013411,3.99814164 C16.4815738,4.29366033 16.488453,4.66391975 16.3195707,4.96460485 L13.506358,9.97981181 L10.0692099,9.97154557 L14.8061662,1.52584196 L16.3013411,3.99814164 Z M20.3662082,7.21784871 C20.367928,7.21440445 20.3699917,7.21061572 20.3720554,7.20751589 C20.3782466,7.19683865 20.3871894,7.18926123 20.3937246,7.17927284 L22.1465223,10.1964566 L20.3159906,13.4602504 L18.5666326,10.4255008 L20.3662082,7.21784871 Z M21.2061477,6.72015114 L21.2068356,6.72015114 L24.1146361,6.71050719 C24.2553139,6.72049557 24.3898006,6.76113802 24.5136246,6.83071233 C24.6536145,6.90958621 24.7674638,7.01808082 24.8500131,7.1482744 L26.391966,9.66431632 C26.4129473,9.70254776 26.423266,9.74353464 26.4384,9.78314379 L22.8358093,9.79003235 L21.0634062,6.73909467 C21.110872,6.73186168 21.1569621,6.72015114 21.2061477,6.72015114 Z" id="Fill-249" fill="#F0F5FD"></path>
                    <path d="M16.9481403,26.6507465 C16.7866654,26.9398137 16.4935422,27.1216017 16.1843057,27.1374693 L13.2301034,27.1285007 C13.2016482,27.1281557 13.1749071,27.119532 13.1467947,27.1167724 L18.2111415,18.0453081 C18.280394,17.9211265 18.2790227,17.7693491 18.2077132,17.6462023 C18.1367465,17.5234005 18.0057838,17.4478567 17.8641933,17.4475118 L9.38933187,17.4268149 L7.62305008,14.3709132 L20.0168492,14.385401 L20.0171921,14.385401 C20.0946726,14.385401 20.1680391,14.3612546 20.2307778,14.3208956 C20.2938592,14.2857108 20.3483699,14.2343134 20.3860817,14.1670484 L22.5380519,10.3119003 L26.0719868,10.3050013 C26.0709584,10.3067261 26.0706155,10.3091407 26.069587,10.3108654 L16.9481403,26.6507465 Z M10.970826,24.2302406 C10.7915238,23.9346195 10.7846671,23.5637995 10.9529987,23.2626592 L13.7566968,18.2398592 L17.1829817,18.248483 L12.4611263,26.7062833 L10.970826,24.2302406 Z M6.91955434,21.0060039 C6.91784015,21.0094534 6.9154403,21.0125579 6.91372616,21.0163524 C6.90789797,21.0267008 6.89898425,21.0346346 6.8924704,21.0446382 L5.14504451,18.0225415 L6.9462954,14.79658 L8.69680682,17.823851 L6.91955434,21.0060039 Z M6.0823532,21.504455 L6.08166753,21.504455 L3.18369005,21.5137686 C3.0427852,21.50411 2.90942269,21.463751 2.78565955,21.3937264 C2.64612603,21.3147331 2.53230507,21.2060742 2.45071054,21.0756836 L0.913441987,18.5554874 C0.892871938,18.517543 0.882586913,18.4768391 0.867502206,18.436825 L4.45800477,18.429926 L6.22497223,21.4851378 C6.17766112,21.4927267 6.13103565,21.504455 6.0823532,21.504455 Z M10.0410597,1.28907377 C10.2021918,1.00000666 10.4956579,0.817528723 10.8045515,0.80200603 L13.7584109,0.810974696 C13.787209,0.811319648 13.8139501,0.819598419 13.8417196,0.822702957 L8.77805852,9.89416727 C8.70880598,10.0183488 8.71017733,10.1701263 8.78114401,10.2929281 C8.85245352,10.4160748 8.98341618,10.4916187 9.1246639,10.4919636 L17.564899,10.5126605 L19.3263812,13.5823602 L6.95075224,13.5678723 C6.81876107,13.5678723 6.69876911,13.6354823 6.62505973,13.7431063 C6.62265992,13.7462108 6.6206029,13.7489704 6.61854587,13.7513851 C6.6137462,13.758974 6.60723234,13.7648381 6.60277551,13.7727719 L4.45080525,17.6275751 L0.916527498,17.6341291 C0.917556,17.6324043 0.917898832,17.6306796 0.918927334,17.6286099 L10.0410597,1.28907377 Z M16.0176883,3.70888981 C16.1973334,4.00485591 16.2041901,4.3756759 16.0358585,4.67681623 L13.2318176,9.69961612 L9.80587546,9.69133737 L14.527388,1.23284711 L16.0176883,3.70888981 Z M20.0693028,6.93347146 C20.071017,6.93002199 20.073074,6.92622752 20.075131,6.923123 C20.081302,6.91242959 20.0902157,6.9048407 20.0967296,6.89483719 L21.8438127,9.91658895 L20.019249,13.1853241 L18.2755943,10.1459799 L20.0693028,6.93347146 Z M20.906504,6.43502039 L20.9071897,6.43502039 L23.8055099,6.42536183 C23.9457291,6.43536534 24.0797773,6.47606932 24.2031976,6.54574897 C24.3427312,6.62474226 24.4562093,6.73340113 24.5384895,6.86379181 L26.0754152,9.38364298 C26.0963281,9.4219323 26.1066131,9.46298123 26.1216978,9.50265035 L22.5308524,9.50954934 L20.7642278,6.45399259 C20.8115389,6.44674865 20.8574787,6.43502039 20.906504,6.43502039 Z M26.7655404,8.98177761 L25.2152442,6.43950476 C25.0613116,6.19424612 24.8463546,5.98934651 24.5943715,5.84619275 C24.3667295,5.71752683 24.1202317,5.64336285 23.832251,5.6240457 L20.906504,5.63232449 L20.9051326,5.63232449 C20.5746405,5.63232449 20.2588902,5.72891014 19.9870226,5.89759014 C19.9853085,5.898625 19.9835943,5.89828005 19.982223,5.89931486 C19.9791375,5.90103961 19.9777661,5.90379923 19.9746806,5.90552394 C19.7412105,6.05350703 19.5406525,6.25392226 19.3966622,6.50056071 L19.3863771,6.51780811 L17.6039822,9.71030953 L14.1454707,9.70168583 L16.7311263,5.06971296 C17.0403627,4.51607007 17.0280207,3.83445118 16.6992427,3.29219163 L15.1671167,0.747849063 C15.0166124,0.535015633 14.825311,0.362196271 14.5983547,0.234220255 C14.3453431,0.0910664909 14.0594193,0.0131080555 13.7662961,0.00862372072 L10.7863813,0 C10.180936,0.0296655993 9.64200067,0.364610913 9.34544909,0.895832111 L0.224002415,17.2353682 C-0.0725491676,17.7665894 -0.0766631778,18.4037099 0.22365958,18.9573528 L1.77361299,21.4996257 C1.92754555,21.7448843 2.14215976,21.9501288 2.39482856,22.0929377 C2.62212764,22.2216036 2.86862542,22.2961125 3.15660615,22.3154296 L6.08269604,22.3068059 L6.08406739,22.3068059 C6.41318822,22.3068059 6.72825282,22.2112551 6.99943469,22.0432651 C7.00183455,22.0418852 7.0045772,22.0415403 7.00697706,22.0401605 C7.01040538,22.0384357 7.01177673,22.0349863 7.01451938,22.0329165 C7.24764666,21.8856234 7.44820464,21.6852081 7.59185218,21.4392596 C7.59596618,21.4333955 7.59905171,21.4271864 7.60248004,21.4216672 L9.38487503,18.2291658 L12.8433864,18.2374446 L10.2577309,22.8694175 C9.94849449,23.4237503 9.96083648,24.1050242 10.2896145,24.6469388 L11.8220834,27.1912814 C11.9722448,27.4044598 12.1635462,27.577624 12.3908453,27.7052551 C12.6431713,27.8484089 12.929095,27.9260224 13.2229039,27.9308516 L16.2024759,27.9391304 C16.808264,27.9094648 17.3468565,27.5748645 17.643408,27.0439882 L26.7651976,10.7041071 C27.0617492,10.172541 27.0658632,9.53611039 26.7655404,8.98177761 Z" id="Fill-249" fill="#111111"></path>
                </g>
            </g>
            <g id="Group-2" transform="translate(7.000000, 0.000000)" stroke="#111111">
                <path d="M28.5413796,52.2203862 L28.5413796,52.2259849 L23.7143929,52.2259849 L23.7143929,49.4327022 C16.5633015,40.5018274 16.5633015,12.705639 23.7143929,3.77476418 L23.7143929,0.981481481 L28.5413796,0.981481481 L28.5413796,0.987080186 C28.624545,0.983355235 28.7082194,0.981481481 28.792403,0.981481481 C42.7141744,0.981481481 54.0000001,12.4529543 54.0000001,26.6037332 C54.0000001,40.7545121 42.7141744,52.2259849 28.792403,52.2259849 C28.7082194,52.2259849 28.624545,52.2241112 28.5413795,52.2203863 Z" id="Combined-Shape" stroke-width="2" fill="#111111"></path>
                <ellipse id="Oval-Copy" stroke-width="1.5" fill="#F0F5FD" cx="25.9467769" cy="26.3279221" rx="25.9467769" ry="26.3279221"></ellipse>
                <ellipse id="Oval-Copy" stroke-width="1.5" fill="#E4E4E8" cx="25.9467769" cy="26.3279221" rx="21.1135537" ry="21.4237013"></ellipse>
            </g>
            <g id="handshake_logo_H_outline" transform="translate(21.000000, 12.000000)">
                <g id="Group">
                    <path d="M17.2348366,26.9053173 C17.0728335,27.1939475 16.7787515,27.3754607 16.4685035,27.3913043 L13.5046383,27.3823493 C13.47609,27.3820048 13.4492614,27.3733941 13.4210571,27.3706387 L18.5019689,18.3128877 C18.5714479,18.1888938 18.5700722,18.0373458 18.4985294,17.9143852 C18.4273305,17.791769 18.2959395,17.7163395 18.1538859,17.715995 L9.65130387,17.6953294 L7.87924472,14.6440473 L20.313583,14.6585133 L20.3139269,14.6585133 C20.3916609,14.6585133 20.4652674,14.6344033 20.5282113,14.5941053 C20.5914991,14.5589738 20.646188,14.5076541 20.6840232,14.4404907 L22.8430323,10.5911704 L26.3885264,10.5842819 C26.3874946,10.586004 26.3871507,10.588415 26.3861188,10.5901371 L17.2348366,26.9053173 Z M11.237971,24.4884705 C11.0580822,24.1932962 11.0512031,23.8230368 11.2200853,23.5223517 L14.0329541,18.5071447 L17.4704461,18.5157554 L12.7331459,26.9607701 L11.237971,24.4884705 Z M7.17344791,21.2691078 C7.17172811,21.2725521 7.1693204,21.2756519 7.16760066,21.2794406 C7.16175341,21.2897735 7.15281054,21.2976953 7.14627537,21.3076836 L5.3931338,18.2901555 L7.20027643,15.0690707 L8.95651363,18.0917653 L7.17344791,21.2691078 Z M6.33350835,21.7668053 L6.33282043,21.7668053 L3.42536391,21.7761049 C3.28399817,21.7664609 3.15019944,21.7261629 3.02603148,21.6562442 C2.88604156,21.5773703 2.7718483,21.4688757 2.68998688,21.3386821 L1.14769005,18.8222957 C1.12705271,18.7844087 1.11673405,18.7437663 1.1016,18.7038127 L4.70384681,18.6969242 L6.47659387,21.7475174 C6.42912802,21.7550948 6.38235004,21.7668053 6.33350835,21.7668053 Z M10.3051635,1.58198362 C10.4668226,1.29335348 10.7612486,1.1111514 11.0711526,1.09565217 L14.0346738,1.10460728 C14.0635661,1.10495171 14.0903946,1.11321797 14.118255,1.11631781 L9.0380311,10.1740689 C8.96855204,10.2980627 8.96992788,10.4496108 9.04112668,10.5722269 C9.11266944,10.6951874 9.24406047,10.7706171 9.3857702,10.7709615 L17.8536127,10.7916271 L19.6208564,13.8566863 L7.20474785,13.8422204 C7.07232495,13.8422204 6.9519405,13.9097281 6.87799003,14.0171895 C6.87558237,14.0202893 6.87351862,14.0230448 6.87145487,14.0254557 C6.86663949,14.0330331 6.86010433,14.0388884 6.85563291,14.0468102 L4.69662374,17.8957861 L1.15078565,17.9023302 C1.15181752,17.9006081 1.15216147,17.898886 1.15319334,17.8968194 L10.3051635,1.58198362 Z M16.3013411,3.99814164 C16.4815738,4.29366033 16.488453,4.66391975 16.3195707,4.96460485 L13.506358,9.97981181 L10.0692099,9.97154557 L14.8061662,1.52584196 L16.3013411,3.99814164 Z M20.3662082,7.21784871 C20.367928,7.21440445 20.3699917,7.21061572 20.3720554,7.20751589 C20.3782466,7.19683865 20.3871894,7.18926123 20.3937246,7.17927284 L22.1465223,10.1964566 L20.3159906,13.4602504 L18.5666326,10.4255008 L20.3662082,7.21784871 Z M21.2061477,6.72015114 L21.2068356,6.72015114 L24.1146361,6.71050719 C24.2553139,6.72049557 24.3898006,6.76113802 24.5136246,6.83071233 C24.6536145,6.90958621 24.7674638,7.01808082 24.8500131,7.1482744 L26.391966,9.66431632 C26.4129473,9.70254776 26.423266,9.74353464 26.4384,9.78314379 L22.8358093,9.79003235 L21.0634062,6.73909467 C21.110872,6.73186168 21.1569621,6.72015114 21.2061477,6.72015114 Z" id="Fill-249" fill="#F0F5FD"></path>
                    <path d="M16.9481403,26.6507465 C16.7866654,26.9398137 16.4935422,27.1216017 16.1843057,27.1374693 L13.2301034,27.1285007 C13.2016482,27.1281557 13.1749071,27.119532 13.1467947,27.1167724 L18.2111415,18.0453081 C18.280394,17.9211265 18.2790227,17.7693491 18.2077132,17.6462023 C18.1367465,17.5234005 18.0057838,17.4478567 17.8641933,17.4475118 L9.38933187,17.4268149 L7.62305008,14.3709132 L20.0168492,14.385401 L20.0171921,14.385401 C20.0946726,14.385401 20.1680391,14.3612546 20.2307778,14.3208956 C20.2938592,14.2857108 20.3483699,14.2343134 20.3860817,14.1670484 L22.5380519,10.3119003 L26.0719868,10.3050013 C26.0709584,10.3067261 26.0706155,10.3091407 26.069587,10.3108654 L16.9481403,26.6507465 Z M10.970826,24.2302406 C10.7915238,23.9346195 10.7846671,23.5637995 10.9529987,23.2626592 L13.7566968,18.2398592 L17.1829817,18.248483 L12.4611263,26.7062833 L10.970826,24.2302406 Z M6.91955434,21.0060039 C6.91784015,21.0094534 6.9154403,21.0125579 6.91372616,21.0163524 C6.90789797,21.0267008 6.89898425,21.0346346 6.8924704,21.0446382 L5.14504451,18.0225415 L6.9462954,14.79658 L8.69680682,17.823851 L6.91955434,21.0060039 Z M6.0823532,21.504455 L6.08166753,21.504455 L3.18369005,21.5137686 C3.0427852,21.50411 2.90942269,21.463751 2.78565955,21.3937264 C2.64612603,21.3147331 2.53230507,21.2060742 2.45071054,21.0756836 L0.913441987,18.5554874 C0.892871938,18.517543 0.882586913,18.4768391 0.867502206,18.436825 L4.45800477,18.429926 L6.22497223,21.4851378 C6.17766112,21.4927267 6.13103565,21.504455 6.0823532,21.504455 Z M10.0410597,1.28907377 C10.2021918,1.00000666 10.4956579,0.817528723 10.8045515,0.80200603 L13.7584109,0.810974696 C13.787209,0.811319648 13.8139501,0.819598419 13.8417196,0.822702957 L8.77805852,9.89416727 C8.70880598,10.0183488 8.71017733,10.1701263 8.78114401,10.2929281 C8.85245352,10.4160748 8.98341618,10.4916187 9.1246639,10.4919636 L17.564899,10.5126605 L19.3263812,13.5823602 L6.95075224,13.5678723 C6.81876107,13.5678723 6.69876911,13.6354823 6.62505973,13.7431063 C6.62265992,13.7462108 6.6206029,13.7489704 6.61854587,13.7513851 C6.6137462,13.758974 6.60723234,13.7648381 6.60277551,13.7727719 L4.45080525,17.6275751 L0.916527498,17.6341291 C0.917556,17.6324043 0.917898832,17.6306796 0.918927334,17.6286099 L10.0410597,1.28907377 Z M16.0176883,3.70888981 C16.1973334,4.00485591 16.2041901,4.3756759 16.0358585,4.67681623 L13.2318176,9.69961612 L9.80587546,9.69133737 L14.527388,1.23284711 L16.0176883,3.70888981 Z M20.0693028,6.93347146 C20.071017,6.93002199 20.073074,6.92622752 20.075131,6.923123 C20.081302,6.91242959 20.0902157,6.9048407 20.0967296,6.89483719 L21.8438127,9.91658895 L20.019249,13.1853241 L18.2755943,10.1459799 L20.0693028,6.93347146 Z M20.906504,6.43502039 L20.9071897,6.43502039 L23.8055099,6.42536183 C23.9457291,6.43536534 24.0797773,6.47606932 24.2031976,6.54574897 C24.3427312,6.62474226 24.4562093,6.73340113 24.5384895,6.86379181 L26.0754152,9.38364298 C26.0963281,9.4219323 26.1066131,9.46298123 26.1216978,9.50265035 L22.5308524,9.50954934 L20.7642278,6.45399259 C20.8115389,6.44674865 20.8574787,6.43502039 20.906504,6.43502039 Z M26.7655404,8.98177761 L25.2152442,6.43950476 C25.0613116,6.19424612 24.8463546,5.98934651 24.5943715,5.84619275 C24.3667295,5.71752683 24.1202317,5.64336285 23.832251,5.6240457 L20.906504,5.63232449 L20.9051326,5.63232449 C20.5746405,5.63232449 20.2588902,5.72891014 19.9870226,5.89759014 C19.9853085,5.898625 19.9835943,5.89828005 19.982223,5.89931486 C19.9791375,5.90103961 19.9777661,5.90379923 19.9746806,5.90552394 C19.7412105,6.05350703 19.5406525,6.25392226 19.3966622,6.50056071 L19.3863771,6.51780811 L17.6039822,9.71030953 L14.1454707,9.70168583 L16.7311263,5.06971296 C17.0403627,4.51607007 17.0280207,3.83445118 16.6992427,3.29219163 L15.1671167,0.747849063 C15.0166124,0.535015633 14.825311,0.362196271 14.5983547,0.234220255 C14.3453431,0.0910664909 14.0594193,0.0131080555 13.7662961,0.00862372072 L10.7863813,0 C10.180936,0.0296655993 9.64200067,0.364610913 9.34544909,0.895832111 L0.224002415,17.2353682 C-0.0725491676,17.7665894 -0.0766631778,18.4037099 0.22365958,18.9573528 L1.77361299,21.4996257 C1.92754555,21.7448843 2.14215976,21.9501288 2.39482856,22.0929377 C2.62212764,22.2216036 2.86862542,22.2961125 3.15660615,22.3154296 L6.08269604,22.3068059 L6.08406739,22.3068059 C6.41318822,22.3068059 6.72825282,22.2112551 6.99943469,22.0432651 C7.00183455,22.0418852 7.0045772,22.0415403 7.00697706,22.0401605 C7.01040538,22.0384357 7.01177673,22.0349863 7.01451938,22.0329165 C7.24764666,21.8856234 7.44820464,21.6852081 7.59185218,21.4392596 C7.59596618,21.4333955 7.59905171,21.4271864 7.60248004,21.4216672 L9.38487503,18.2291658 L12.8433864,18.2374446 L10.2577309,22.8694175 C9.94849449,23.4237503 9.96083648,24.1050242 10.2896145,24.6469388 L11.8220834,27.1912814 C11.9722448,27.4044598 12.1635462,27.577624 12.3908453,27.7052551 C12.6431713,27.8484089 12.929095,27.9260224 13.2229039,27.9308516 L16.2024759,27.9391304 C16.808264,27.9094648 17.3468565,27.5748645 17.643408,27.0439882 L26.7651976,10.7041071 C27.0617492,10.172541 27.0658632,9.53611039 26.7655404,8.98177761 Z" id="Fill-249" fill="#111111"></path>
                </g>
            </g>
            <g id="Group-2" stroke="#111111">
                <path d="M28.3651982,51.9158419 L28.3651982,51.921408 L23.5680078,51.921408 L23.5680078,49.1444154 C16.4610589,40.2656247 16.4610589,12.6315409 23.5680078,3.75275012 L23.5680078,0.975757576 L28.3651982,0.975757576 L28.3651982,0.981323629 C28.4478502,0.977620402 28.5310082,0.975757576 28.6146721,0.975757576 C42.4505067,0.975757576 53.6666668,12.3803299 53.6666668,26.4485828 C53.6666668,40.5168357 42.4505067,51.921408 28.6146721,51.921408 C28.5310082,51.921408 28.4478502,51.9195452 28.3651982,51.915842 Z" id="Combined-Shape" stroke-width="2" fill="#111111"></path>
                <ellipse id="Oval-Copy" stroke-width="1.5" fill="#F0F5FD" cx="25.7866116" cy="26.1743802" rx="25.7866116" ry="26.1743802"></ellipse>
                <ellipse id="Oval-Copy" stroke-width="1.5" fill="#E4E4E8" cx="25.7866116" cy="26.1743802" rx="20.9832231" ry="21.2987603"></ellipse>
            </g>
            <g id="handshake_logo_H_outline" transform="translate(13.000000, 12.000000)">
                <g id="Group">
                    <path d="M17.439875,27.1906767 C17.2759446,27.4823681 16.978364,27.6658065 16.6644251,27.6818182 L13.6652995,27.6727681 C13.6364116,27.67242 13.6092639,27.663718 13.580724,27.6609334 L18.7220821,18.5071153 C18.7923877,18.3818063 18.7909956,18.228651 18.7186017,18.1043863 C18.6465558,17.9804696 18.5136016,17.90424 18.369858,17.9038919 L9.76612298,17.8830071 L7.97298209,14.7993629 L20.5552485,14.8139823 L20.5555966,14.8139823 C20.6342553,14.8139823 20.7087374,14.7896167 20.7724302,14.7488913 C20.8364709,14.7133871 20.8918104,14.6615231 20.9300957,14.5936474 L23.11479,10.703501 L26.702464,10.6965394 C26.7014199,10.6982798 26.7010719,10.7007164 26.7000277,10.7024567 L17.439875,27.1906767 Z M11.3716663,24.7481967 C11.1896374,24.4498918 11.1826765,24.0757053 11.3535678,23.7718312 L14.1999005,18.7034326 L17.6782876,18.7121346 L12.8846289,27.2467177 L11.3716663,24.7481967 Z M7.25878859,21.4946892 C7.25704834,21.4981701 7.25461198,21.5013028 7.25287178,21.5051317 C7.24695497,21.5155741 7.2379057,21.5235799 7.23129279,21.5336742 L5.45729454,18.484142 L7.28593629,15.2288941 L9.063067,18.2836477 L7.25878859,21.4946892 Z M6.40885648,21.9976654 L6.40816038,21.9976654 L3.46611459,22.0070636 C3.32306706,21.9973173 3.18767656,21.9565919 3.06203141,21.8859316 C2.92037606,21.8062212 2.80482428,21.6965759 2.72198897,21.5650015 L1.16134382,19.0219261 C1.14046097,18.9836373 1.13001955,18.9425639 1.11470545,18.9021865 L4.75980727,18.8952249 L6.55364426,21.9781729 C6.50561372,21.9858307 6.45827923,21.9976654 6.40885648,21.9976654 Z M10.4277614,1.59876223 C10.5913437,1.30707087 10.8892724,1.12293634 11.2028632,1.10727273 L14.2016408,1.11632281 C14.2308768,1.1166709 14.2580245,1.12502483 14.2862163,1.12815755 L9.14555425,10.2819756 C9.07524862,10.4072846 9.07664082,10.56044 9.14868666,10.6843566 C9.22108055,10.8086213 9.3540347,10.8848509 9.49743032,10.885199 L18.0660125,10.9060838 L19.8542808,14.0036512 L7.2904609,13.9890318 C7.1564626,13.9890318 7.03464596,14.0572555 6.95981573,14.1658566 C6.95737942,14.1689893 6.95529112,14.171774 6.95320281,14.1742105 C6.94833015,14.1818683 6.94171724,14.1877857 6.93719263,14.1957915 L4.75249828,18.0855899 L1.16447625,18.0922034 C1.1655204,18.090463 1.16586844,18.0887226 1.16691258,18.0866341 L10.4277614,1.59876223 Z M16.495274,4.04054617 C16.6776509,4.33919915 16.6846119,4.71338556 16.5137205,5.01725975 L13.6670397,10.0856583 L10.1890008,10.0773044 L14.9823114,1.54202513 L16.495274,4.04054617 Z M20.6084998,7.29440165 C20.61024,7.29092086 20.6123283,7.28709195 20.6144166,7.28395924 C20.6206814,7.27316875 20.6297306,7.26551097 20.6363436,7.25541665 L22.4099938,10.3046009 L20.5576848,13.6030107 L18.7875151,10.5360743 L20.6084998,7.29440165 Z M21.4584319,6.79142547 L21.459128,6.79142547 L24.4015218,6.78167923 C24.5438732,6.79177356 24.6799598,6.83284706 24.8052569,6.90315928 C24.9469123,6.9828697 25.062116,7.09251501 25.1456474,7.22408943 L26.7059445,9.76681665 C26.7271754,9.80545357 26.7376168,9.84687516 26.7529309,9.88690441 L23.1074811,9.89386603 L21.3139921,6.81056991 C21.3620227,6.80326021 21.4086611,6.79142547 21.4584319,6.79142547 Z" id="Fill-249" fill="#F0F5FD"></path>
                    <path d="M17.149768,26.933406 C16.9863721,27.225539 16.6897616,27.4092551 16.3768463,27.425291 L13.3874986,27.4162272 C13.3587048,27.4158786 13.3316456,27.4071634 13.3031988,27.4043746 L18.4277948,18.2366978 C18.4978712,18.1111991 18.4964836,17.9578118 18.4243257,17.833359 C18.3525147,17.7092548 18.219994,17.6329098 18.076719,17.6325612 L9.50103436,17.6116447 L7.71373956,14.5233319 L20.2549846,14.5379735 L20.2553315,14.5379735 C20.3337338,14.5379735 20.4079731,14.5135709 20.4714582,14.4727839 C20.5352901,14.4372259 20.5904492,14.3852834 20.6286097,14.317305 L22.8061814,10.4212689 L26.3821586,10.4142968 C26.3811179,10.4160398 26.380771,10.4184801 26.3797302,10.4202231 L17.149768,26.933406 Z M11.1013432,24.487228 C10.9199078,24.1884715 10.9129695,23.8137186 11.0833037,23.5093843 L13.9203567,18.4333123 L17.3874033,18.4420275 L12.6093732,26.9895318 L11.1013432,24.487228 Z M7.00187452,21.2287948 C7.00013994,21.2322809 6.99771153,21.2354184 6.99597699,21.2392531 C6.99007947,21.2497113 6.98105971,21.2577293 6.97446836,21.2678389 L5.20625379,18.2136897 L7.02893371,14.9535135 L8.80027052,18.0128918 L7.00187452,21.2287948 Z M6.15471341,21.7325325 L6.15401958,21.7325325 L3.2215656,21.7419449 C3.07898444,21.7321839 2.94403535,21.6913969 2.81879983,21.6206295 C2.67760632,21.5407985 2.56243126,21.4309871 2.47986602,21.2992136 L0.924308974,18.752288 C0.903494207,18.7139412 0.893086824,18.6728056 0.877822658,18.6323671 L4.51104052,18.625395 L6.29902914,21.7130105 C6.25115519,21.7206799 6.20397502,21.7325325 6.15471341,21.7325325 Z M10.1605156,1.30274577 C10.3235646,1.01061279 10.620522,0.826199482 10.9330905,0.810512154 L13.9220912,0.819575943 C13.9512319,0.819924553 13.9782911,0.82829113 14.006391,0.831428595 L8.88248884,9.99910541 C8.81241243,10.124604 8.81380009,10.2779913 8.88561104,10.4020955 C8.9577689,10.5265483 9.09028959,10.6028934 9.2332177,10.603242 L17.7738642,10.6241584 L19.5563022,13.7264155 L7.03344357,13.711774 C6.89988213,13.711774 6.77846265,13.780101 6.70387638,13.8888665 C6.70144802,13.892004 6.69936652,13.8947929 6.69728503,13.8972331 C6.69242826,13.9049025 6.6858369,13.9108288 6.68132705,13.9188467 L4.50375535,17.8145342 L0.927431192,17.8211577 C0.92847193,17.8194147 0.928818841,17.8176717 0.929859579,17.81558 L10.1605156,1.30274577 Z M16.2082467,3.74822652 C16.390029,4.04733165 16.3969672,4.42208458 16.226633,4.72641883 L13.3892331,9.80249084 L9.92253346,9.79412428 L14.7002167,1.24592277 L16.2082467,3.74822652 Z M20.3080622,7.00700828 C20.3097968,7.00352222 20.3118783,6.99968751 20.3139597,6.99655006 C20.3202042,6.98574324 20.3292239,6.97807386 20.3358152,6.96796425 L22.1036829,10.0217649 L20.2574129,13.3251684 L18.4930144,10.2535888 L20.3080622,7.00700828 Z M21.1552233,6.50327061 L21.1559172,6.50327061 L24.088718,6.49350961 C24.2306054,6.50361922 24.3662483,6.5447549 24.4911369,6.61517358 C24.6323304,6.69500468 24.7471586,6.80481599 24.8304176,6.93658961 L26.3856278,9.48316647 C26.4067894,9.52186188 26.4171968,9.56334618 26.432461,9.60343604 L22.7988962,9.6104082 L21.0112545,6.52244403 C21.0591285,6.51512326 21.1056148,6.50327061 21.1552233,6.50327061 Z M27.0839632,9.07703888 L25.5152235,6.50780254 C25.3594597,6.25994267 25.1419453,6.05286989 24.8869644,5.90819783 C24.6566143,5.77816726 24.407184,5.7032167 24.1157773,5.68369467 L21.1552233,5.69206127 L21.1538357,5.69206127 C20.8194117,5.69206127 20.499905,5.78967131 20.2248031,5.96014034 C20.2230686,5.96118617 20.221334,5.96083756 20.2199464,5.96188335 C20.2168242,5.9636264 20.2154365,5.96641528 20.2123143,5.96815829 C19.9760667,6.11771089 19.7731227,6.32025174 19.6274193,6.56950605 L19.6170119,6.58693638 L17.8134122,9.81329766 L14.3137558,9.8045825 L16.9301722,5.12348264 C17.2430875,4.56396779 17.2305987,3.87511961 16.8979093,3.32710881 L15.347556,0.755780796 C15.1952612,0.540690042 15.0016839,0.366037747 14.7720276,0.236704409 C14.5160059,0.0920323476 14.2266807,0.0132470803 13.9300702,0.00871518443 L10.9147041,0 C10.302056,0.0299802345 9.7567091,0.368477998 9.45662952,0.905333361 L0.226667314,17.4181676 C-0.0734122666,17.955023 -0.0775752201,18.5989008 0.226320401,19.1584157 L1.79471322,21.727652 C1.95047707,21.9755119 2.16764449,22.1829332 2.42331923,22.3272567 C2.65332242,22.4572872 2.90275273,22.5325865 3.19415949,22.5521084 L6.15506032,22.5433933 L6.15644799,22.5433933 C6.48948428,22.5433933 6.80829713,22.446829 7.08270518,22.2770573 C7.08513359,22.2756628 7.08790887,22.2753142 7.09033728,22.2739198 C7.09380639,22.2721767 7.09519405,22.2686907 7.09796933,22.266599 C7.33387006,22.1177437 7.53681404,21.9152028 7.68217051,21.6666457 C7.68633346,21.6607194 7.6894557,21.6544445 7.69292481,21.6488667 L9.4965245,18.4225055 L12.9961809,18.4308721 L10.3797645,23.1119719 C10.0668492,23.672184 10.079338,24.3606835 10.4120274,24.9083457 L11.9627277,27.4796737 C12.1146755,27.6951131 12.3082528,27.870114 12.5382561,27.9990987 C12.7935839,28.1437708 13.0829091,28.2222074 13.3802134,28.2270879 L16.3952327,28.2354545 C17.0082276,28.2054743 17.5532276,27.8673252 17.8533072,27.3308184 L27.0836163,10.8176355 C27.3836959,10.2804316 27.3878588,9.63725096 27.0839632,9.07703888 Z" id="Fill-249" fill="#111111"></path>
                </g>
            </g>
        </g>
    </g>
</svg>