<svg xmlns="http://www.w3.org/2000/svg" xmlns:xlink="http://www.w3.org/1999/xlink" version="1.1" id="Layer_1" x="0px" y="0px" viewBox="0 0 495.23 495.23" style="enable-background:new 0 0 495.23 495.23;" xml:space="preserve">
<path style="fill: #8c20bd;" d="M424.846,447.583c0,25.758-20.874,47.648-46.647,47.648H117.016  c-25.758,0-46.631-21.89-46.631-47.648V267.24c0-25.758,20.874-47.703,46.631-47.703h261.175c25.781,0,46.655,21.945,46.655,47.703  V447.583z"/>
<path style="fill: #7905af;" d="M424.846,266.799v180.783c0,25.758-20.874,47.648-46.647,47.648H117.646"/>
<g>
	<path style="fill: #b83de5;" d="M70.384,266.713c0-25.765,20.874-47.175,46.631-47.175h261.175c25.781,0,46.655,21.15,46.655,46.907   "/>
</g>
<path style="fill: #8741a7;" d="M377.584,195.907H338.2v-62.401c0-50.467-40.109-91.522-90.577-91.522  c-50.467,0-90.592,41.055-90.592,91.522v62.401h-39.385v-62.401C117.646,59.888,173.997,0,247.623,0  c73.61,0,129.961,59.888,129.961,133.506V195.907z"/>
<g>
	<path style="fill: #4c1764;" d="M117.646,175.498v20.409h39.385v-20.409v-41.992c0-50.467,42.362-91.522,92.837-91.522   C176.242,41.984,117.646,101.88,117.646,175.498z"/>
	<path style="fill: #4c1764;" d="M245.386,41.984c50.46,0,92.814,41.055,92.814,91.522v41.992v20.409h39.385v-20.409   C377.584,101.88,318.996,41.984,245.386,41.984z"/>
</g>
</svg>
