<svg xmlns="http://www.w3.org/2000/svg" xmlns:xlink="http://www.w3.org/1999/xlink" width="149" height="193" viewBox="0 0 149 193"><defs><path id="a" d="M920.922 234.563c-3.573-3.16-5.838-18.258-5.838-18.258l-.585-108.605-27.238 15.67v1.306l-.056 3.466a33.567 33.567 0 0 0-4.901-.358c-6.08 0-11.78 1.628-16.687 4.472l-.303.094-8.257 4.675-26.571 15.378c-30.125 21.043-27.047 53.481-27.047 53.481l.26 39.943.086 3.052.586 6.365c1.032 8.772 5.613 16.368 12.357 21.109l12.685 5.179 11.683-.649 14.603-7.789 17.108-10.129 8.528-7.07 6.504-8.931-.022 7.439zm-44.72-5.502l-11.353 7.008-16.69 9.722a10.68 10.68 0 0 1-5.424 1.47c-5.928 0-10.733-4.805-10.733-10.733l-.201-6.09-1.12-29.824s-.131-18.762 19.158-27.75l21.466-11.993 4.432-2.732a8.05 8.05 0 0 1 11.515 7.267l.067 1.587.19 32.315.093 8.314c0 8.924-4.522 16.793-11.4 21.439z"/><path id="b" d="M864.757 235.843l-16.689 9.722a10.686 10.686 0 0 1-5.425 1.469c-5.928 0-10.733-4.805-10.733-10.733l-.201-6.089-1.119-29.824s-.132-18.763 19.157-27.751l21.466-11.992 4.432-2.733a8.05 8.05 0 0 1 11.515 7.267l.067 1.588.19 32.315.093 8.314c0 8.924-4.522 16.793-11.399 21.439z"/><path id="c" d="M866.5 163.25l.127 21.738.094 8.315c0 8.924-4.522 16.792-11.399 21.438l-11.354 7.009-12.338 6.987"/><path id="d" d="M884.33 251.91l3.399 2.267z"/><path id="e" d="M921.456 233.957c-2.264-3.242-3.845-7.02-5.064-11.677-.922-3.524-1.352-6.974-1.34-10.149l.04-2.738-.68-92.625v-9.296l-21.21-12.258-6.452-3.614-27.24 15.669v1.307l.05 3.313c-1.6-.236-3.34-.205-5.005-.205a33.174 33.174 0 0 0-16.688 4.472l-.303.093-8.256 4.676-26.571 15.379c-30.125 21.042-27.048 53.48-27.048 53.48l.26 39.943.086 3.052.587 6.365c1.032 8.772 5.612 16.369 12.356 21.109l27.663 15.872c4.654 3.272 10.338 5.184 16.597 5.184a29.94 29.94 0 0 0 16.819-5.138l21.817-12.85.846-.584c6.149-3.924 11.456-9.62 15.032-16.001l-.051 2.224.029 5.215 27.437-16.552 5.668-3.288z"/><path id="f" d="M887.119 127.911l-23.566-13.632-4.583-2.649"/><path id="g" d="M859.8 107.35l27.407 15.543"/><path id="h" d="M816.638 276.124c-6.744-4.741-11.325-12.337-12.356-21.109l-.587-6.366-.086-3.051-.26-39.943s-3.078-32.438 27.048-53.481l26.57-15.378 8.257-4.676.303-.093a33.174 33.174 0 0 1 16.687-4.473c1.665 0 3.302.122 4.9.358l.057-3.465v-1.307l27.238-15.67.585 108.606s2.265 15.097 5.838 18.257l-33.105 19.84.022-7.438-6.504 8.931-8.528 7.07-17.108 10.129-14.603 7.788-11.682.649z"/></defs><use fill="#343b44" xlink:href="#a" transform="translate(-774 -90)"/><use fill="#fff" fill-opacity="0" stroke="#fff" stroke-linejoin="round" stroke-miterlimit="50" stroke-width="1.1" xlink:href="#b" transform="translate(-774 -90)"/><use fill="#fff" fill-opacity="0" stroke="#fff" stroke-linejoin="round" stroke-miterlimit="50" stroke-width="1.1" xlink:href="#c" transform="translate(-774 -90)"/><use fill="#fff" fill-opacity="0" stroke="#fff" stroke-linejoin="round" stroke-miterlimit="50" stroke-width="3" xlink:href="#d" transform="translate(-774 -90)"/><use fill="#fff" fill-opacity="0" stroke="#fff" stroke-linejoin="round" stroke-miterlimit="50" stroke-width="3.2" xlink:href="#e" transform="translate(-774 -90)"/><use fill="#fff" fill-opacity="0" stroke="#fff" stroke-linejoin="round" stroke-miterlimit="50" xlink:href="#f" transform="translate(-774 -90)"/><use fill="#fff" fill-opacity="0" stroke="#fff" stroke-linejoin="round" stroke-miterlimit="50" stroke-width="1.1" xlink:href="#g" transform="translate(-774 -90)"/><g><use fill="#fff" fill-opacity="0" stroke="#fff" stroke-linejoin="round" stroke-miterlimit="50" xlink:href="#h" transform="translate(-774 -90)"/><use fill="#fff" fill-opacity="0" stroke="#fff" stroke-linejoin="round" stroke-miterlimit="50" xlink:href="#h" transform="translate(-774 -90)"/></g></svg>