<?xml version="1.0" encoding="UTF-8"?>
<svg width="256px" height="256px" viewBox="0 0 256 256" version="1.1" xmlns="http://www.w3.org/2000/svg" xmlns:xlink="http://www.w3.org/1999/xlink">
  <!-- Generator: Sketch 51.3 (57544) - http://www.bohemiancoding.com/sketch -->
  <title>Group 26</title>
  <desc>Created with Sketch.</desc>
  <defs></defs>
  <g id="Page-1" stroke="none" stroke-width="1" fill="none" fill-rule="evenodd">
    <g id="Group-26">
      <circle id="Oval-8-Copy-3" fill="#3B4247" cx="128" cy="128" r="128"></circle>
      <path d="M175.477081,67.6226415 L175.477081,83.4642852 L190.885015,83.4642852 L190.885015,98.4258376 L190.885015,98.8658833 L190.885015,113.827436 L175.917308,113.827436 L175.477081,113.827436 L160.509373,113.827436 L160.509373,98.4258376 L145.101439,98.4258376 L145.101439,83.4642852 L145.101439,83.0242396 L145.101439,67.6226415 L129.254379,67.6226415 L129.254379,83.0242396 L114.28557,83.0242396 L113.845344,83.0242396 L98.8765356,83.0242396 L98.8765356,67.6226415 L83.0294752,67.6226415 L83.0294752,83.0242396 L83.0294752,83.4642852 L83.0294752,98.4258376 L67.6226415,98.4258376 L67.6226415,113.827436 L67.6226415,114.267481 L67.6226415,129.229034 L67.6226415,129.669079 L67.6226415,145.070677 L83.0294752,145.070677 L83.0294752,160.472276 L98.43851,160.472276 L98.43851,175.433828 L98.43851,175.873874 L98.43851,191.275472 L114.28557,191.275472 L114.28557,175.873874 L114.28557,175.433828 L114.28557,160.472276 L129.254379,160.472276 L129.254379,175.433828 L129.254379,175.873874 L129.254379,191.275472 L145.101439,191.275472 L145.101439,175.873874 L145.101439,175.433828 L145.101439,160.472276 L160.069147,160.472276 L160.069147,175.433828 L160.069147,175.873874 L160.069147,191.275472 L175.917308,191.275472 L175.917308,175.873874 L175.917308,175.433828 L175.917308,160.472276 L190.885015,160.472276 L190.885015,175.433828 L190.885015,175.873874 L190.885015,191.275472 L206.732075,191.275472 L206.732075,67.6226415 L175.477081,67.6226415 Z M113.992453,129.449057 L129.449057,129.449057 L129.449057,113.992453 L113.992453,113.992453 L113.992453,129.449057 Z M83.0792453,129.449057 L98.5358491,129.449057 L98.5358491,113.992453 L83.0792453,113.992453 L83.0792453,129.449057 Z" id="Page-1-Copy-3" fill="#FFFFFF" transform="translate(137.177358, 129.449057) scale(-1, 1) translate(-137.177358, -129.449057) "></path>
    </g>
  </g>
</svg>
