<svg width="159" height="24" viewBox="0 0 159 24" fill="none" xmlns="http://www.w3.org/2000/svg">
<path d="M33.8462 2.29785H39.6943C42.4414 2.29785 44.4285 2.7085 45.6558 3.52979C46.883 4.35107 47.4966 5.64909 47.4966 7.42383C47.4966 8.65104 47.152 9.66585 46.4629 10.4683C45.7832 11.2612 44.7873 11.7757 43.4751 12.0117V12.1533C46.6187 12.6914 48.1904 14.3434 48.1904 17.1094C48.1904 18.9596 47.5627 20.404 46.3071 21.4424C45.061 22.4808 43.3146 23 41.0679 23H33.8462V2.29785ZM36.2534 11.1621H40.2183C41.9175 11.1621 43.14 10.8978 43.8857 10.3691C44.6315 9.83105 45.0044 8.92952 45.0044 7.66455C45.0044 6.50342 44.589 5.66797 43.7583 5.1582C42.9276 4.639 41.606 4.37939 39.7935 4.37939H36.2534V11.1621ZM36.2534 13.2012V20.9468H40.5723C42.2432 20.9468 43.4987 20.6258 44.3389 19.9839C45.1885 19.3325 45.6133 18.3177 45.6133 16.9395C45.6133 15.6556 45.179 14.7116 44.3105 14.1074C43.4515 13.5033 42.1393 13.2012 40.374 13.2012H36.2534ZM63.6624 15.2261C63.6624 17.756 63.0252 19.7337 61.7508 21.1592C60.4763 22.5752 58.7158 23.2832 56.469 23.2832C55.0813 23.2832 53.8494 22.9575 52.7732 22.3062C51.6971 21.6548 50.8663 20.7202 50.281 19.5024C49.6957 18.2847 49.4031 16.8592 49.4031 15.2261C49.4031 12.6961 50.0356 10.7279 51.3006 9.32129C52.5655 7.90527 54.3214 7.19727 56.5681 7.19727C58.7394 7.19727 60.4622 7.91943 61.7366 9.36377C63.0205 10.8081 63.6624 12.7622 63.6624 15.2261ZM51.8387 15.2261C51.8387 17.2085 52.2351 18.7189 53.0281 19.7573C53.8211 20.7957 54.9869 21.3149 56.5257 21.3149C58.0644 21.3149 59.2303 20.8005 60.0232 19.7715C60.8256 18.7331 61.2268 17.2179 61.2268 15.2261C61.2268 13.2531 60.8256 11.7568 60.0232 10.7373C59.2303 9.70833 58.055 9.19385 56.4973 9.19385C54.9586 9.19385 53.7975 9.69889 53.0139 10.709C52.2304 11.7191 51.8387 13.2248 51.8387 15.2261ZM72.9888 7.22559C75.0279 7.22559 76.6091 7.92415 77.7325 9.32129C78.8653 10.709 79.4317 12.6772 79.4317 15.2261C79.4317 17.7749 78.8606 19.7573 77.7183 21.1733C76.5855 22.5799 75.009 23.2832 72.9888 23.2832C71.9787 23.2832 71.0536 23.0991 70.2134 22.731C69.3827 22.3534 68.6841 21.7775 68.1177 21.0034H67.9478L67.4522 23H65.7671V0.966797H68.1177V6.31934C68.1177 7.51823 68.08 8.5944 68.0045 9.54785H68.1177C69.2128 7.99967 70.8365 7.22559 72.9888 7.22559ZM72.649 9.19385C71.0442 9.19385 69.8878 9.65641 69.1797 10.5815C68.4717 11.4972 68.1177 13.0454 68.1177 15.2261C68.1177 17.4067 68.4812 18.9691 69.2081 19.9131C69.935 20.8477 71.1008 21.3149 72.7056 21.3149C74.15 21.3149 75.2261 20.791 75.9341 19.7432C76.6421 18.6859 76.9962 17.1707 76.9962 15.1978C76.9962 13.1776 76.6421 11.6719 75.9341 10.6807C75.2261 9.68945 74.1311 9.19385 72.649 9.19385ZM105.448 23H103.069L98.8917 9.13721C98.6935 8.5236 98.4716 7.74951 98.2262 6.81494C97.9807 5.88037 97.8533 5.31868 97.8439 5.12988C97.6362 6.37598 97.3058 7.74007 96.8527 9.22217L92.8029 23H90.4239L84.9156 2.29785H87.4645L90.7355 15.0845C91.1886 16.8781 91.519 18.5018 91.7267 19.9556C91.9816 18.228 92.3592 16.5382 92.8595 14.8862L96.5695 2.29785H99.1183L103.012 14.9995C103.465 16.4627 103.848 18.1147 104.159 19.9556C104.339 18.6151 104.679 16.9819 105.179 15.0562L108.436 2.29785H110.984L105.448 23ZM121.387 23L120.92 20.791H120.807C120.032 21.7633 119.258 22.4242 118.484 22.7734C117.72 23.1133 116.761 23.2832 115.61 23.2832C114.071 23.2832 112.863 22.8867 111.985 22.0938C111.116 21.3008 110.682 20.1727 110.682 18.7095C110.682 15.5754 113.188 13.9328 118.201 13.7817L120.835 13.6968V12.7339C120.835 11.5161 120.571 10.6193 120.042 10.0435C119.523 9.45817 118.687 9.16553 117.536 9.16553C116.242 9.16553 114.779 9.56201 113.146 10.355L112.424 8.55664C113.188 8.14128 114.024 7.81559 114.93 7.57959C115.846 7.34359 116.761 7.22559 117.677 7.22559C119.527 7.22559 120.896 7.63623 121.784 8.45752C122.68 9.27881 123.129 10.5957 123.129 12.4082V23H121.387ZM116.077 21.3433C117.54 21.3433 118.687 20.9421 119.518 20.1396C120.358 19.3372 120.778 18.2139 120.778 16.7695V15.3677L118.428 15.4668C116.558 15.5329 115.209 15.8255 114.378 16.3447C113.557 16.8545 113.146 17.6522 113.146 18.7378C113.146 19.5874 113.401 20.234 113.911 20.6777C114.43 21.1214 115.152 21.3433 116.077 21.3433ZM128.306 23H125.956V0.966797H128.306V23ZM133.611 23H131.261V0.966797H133.611V23ZM143.122 23.2832C140.828 23.2832 139.015 22.5846 137.684 21.1875C136.363 19.7904 135.702 17.8504 135.702 15.3677C135.702 12.866 136.316 10.8789 137.543 9.40625C138.779 7.93359 140.436 7.19727 142.513 7.19727C144.458 7.19727 145.996 7.83919 147.129 9.12305C148.262 10.3975 148.828 12.0825 148.828 14.1782V15.665H138.137C138.185 17.487 138.642 18.87 139.511 19.814C140.389 20.758 141.621 21.23 143.207 21.23C144.878 21.23 146.53 20.8807 148.163 20.1821V22.2778C147.332 22.6366 146.544 22.8914 145.798 23.0425C145.062 23.203 144.17 23.2832 143.122 23.2832ZM142.485 9.16553C141.239 9.16553 140.243 9.57145 139.497 10.3833C138.76 11.1951 138.326 12.3185 138.194 13.7534H146.308C146.308 12.2713 145.977 11.1385 145.317 10.355C144.656 9.56201 143.712 9.16553 142.485 9.16553ZM155.833 21.3433C156.248 21.3433 156.649 21.3149 157.036 21.2583C157.423 21.1922 157.73 21.1261 157.957 21.0601V22.8584C157.702 22.9811 157.324 23.0802 156.824 23.1558C156.333 23.2407 155.889 23.2832 155.493 23.2832C152.491 23.2832 150.99 21.702 150.99 18.5396V9.30713H148.767V8.17432L150.99 7.19727L151.981 3.88379H153.34V7.48047H157.843V9.30713H153.34V18.4404C153.34 19.375 153.562 20.0924 154.006 20.5928C154.45 21.0931 155.058 21.3433 155.833 21.3433Z" fill="#2E2E2E"/>
<path d="M5.25 2H0V23H2.625V17.75H5.25V23H7.875V17.75H10.5V23H13.125V17.75H15.75V23H18.375V17.75H21V15.125H23.625V7.25H21V2H18.375V4.625H13.125V2H10.5V7.25H7.875V9.875H2.625V4.625H5.25V2Z" fill="#2E2E2E"/>
<rect x="13.125" y="9.875" width="2.625" height="2.625" fill="white"/>
<rect x="18.375" y="9.875" width="2.625" height="2.625" fill="white"/>
</svg>
